#!OML:ASF X:\für Bonn\!DataBase\2005_08_10_Bjorn_Final\c3d\bjorn.ASF
:FULLY-SPECIFIED
:DEGREES
143
root 3.37766 17.5791 0.972838 -218.462 -1.50316 178.786
lowerback 3.26838 5.86164 0.109421
upperback 14.6016 5.79687 -6.48546
thorax 15.1146 2.11775 -7.14865
lowerneck 15.3584 4.89094 -1.86682
upperneck 16.59 1.77527 14.3557
head 2.24971 -0.350853 4.67006
rclavicle -3.77691e-015 -1.17681e-013
rhumerus -42.2233 6.14297 -78.7528
rradius 34.9772
rwrist -2.83734
rhand -20.8851 21.8481
rfingers 7.12502
rthumb 5.48531 -8.0609
lclavicle -3.77691e-015 -1.17681e-013
lhumerus 11.8166 5.54163 36.3221
lradius 105.478
lwrist 5.76359
lhand -55.738 -12.1377
lfingers 7.12502
lthumb -28.0858 15.7796
rfemur 28.7148 -3.56755 17.6036
rtibia 39.5599
rfoot -23.4734 20.4333
rtoes 1.45297
lfemur -46.4846 13.4527 -15.4055
ltibia 30.7694
lfoot 12.7352 -7.74956
ltoes 2.05529
144
root 3.34545 17.5878 1.00318 -218.241 -2.0261 179.143
lowerback 3.09518 5.6224 0.192081
upperback 14.615 5.51756 -6.33035
thorax 15.1836 2.00791 -7.03049
lowerneck 14.8185 4.73806 -2.3474
upperneck 16.2466 1.75743 14.071
head 2.22441 -0.304869 4.66003
rclavicle 1.96797e-014 -9.54166e-014
rhumerus -42.0938 6.2461 -78.5465
rradius 34.9332
rwrist -3.48758
rhand -20.6749 21.7095
rfingers 7.12502
rthumb 5.68825 -8.1942
lclavicle 1.96797e-014 -9.54166e-014
lhumerus 12.7282 5.17103 37.1117
lradius 105.072
lwrist 5.40582
lhand -55.8205 -12.5605
lfingers 7.12502
lthumb -28.1647 15.3438
rfemur 28.4628 -3.81966 17.8035
rtibia 39.4915
rfoot -23.7172 19.8635
rtoes 0.845216
lfemur -45.8684 13.0761 -16.0299
ltibia 31.2277
lfoot 11.9495 -7.91087
ltoes 2.29734
145
root 3.313 17.5948 1.03988 -217.969 -2.3557 179.439
lowerback 2.95688 5.42702 0.300883
upperback 14.6076 5.29163 -6.13991
thorax 15.2111 1.92318 -6.88125
lowerneck 14.3072 4.5777 -2.87299
upperneck 15.8424 1.74835 13.7217
head 2.17836 -0.25639 4.63681
rclavicle -3.85642e-014 1.08139e-013
rhumerus -41.922 6.47124 -78.3004
rradius 34.8983
rwrist -3.96553
rhand -20.3634 21.6306
rfingers 7.12502
rthumb 5.98902 -8.26472
lclavicle -3.85642e-014 1.08139e-013
lhumerus 13.5148 4.74492 37.8103
lradius 104.721
lwrist 5.05557
lhand -55.9246 -13.2758
lfingers 7.12502
lthumb -28.2642 14.6121
rfemur 28.0733 -3.95299 18.026
rtibia 39.5098
rfoot -23.882 19.4261
rtoes 0.319878
lfemur -45.2474 12.9137 -16.5644
ltibia 31.6084
lfoot 10.4963 -7.47888
ltoes 1.32974
146
root 3.27994 17.5994 1.08323 -217.654 -2.61438 179.734
lowerback 2.88979 5.2574 0.46241
upperback 14.5882 5.09016 -5.95269
thorax 15.1904 1.85493 -6.76577
lowerneck 13.7821 4.40145 -3.35056
upperneck 15.4018 1.72962 13.3675
head 2.12711 -0.209598 4.60426
rclavicle 5.46658e-014 8.26944e-014
rhumerus -41.7174 6.73259 -78.0833
rradius 34.837
rwrist -4.32576
rhand -20.0331 21.6871
rfingers 7.12502
rthumb 6.30786 -8.19898
lclavicle 5.46658e-014 8.26944e-014
lhumerus 14.2626 4.23396 38.4021
lradius 104.438
lwrist 4.68928
lhand -55.9919 -14.0762
lfingers 7.12502
lthumb -28.3285 13.8011
rfemur 27.5687 -4.05317 18.2867
rtibia 39.6056
rfoot -24.0517 18.9877
rtoes -0.243251
lfemur -44.6797 12.9813 -17.1224
ltibia 31.9399
lfoot 8.66154 -6.84736
ltoes 0.266468
147
root 3.24736 17.6023 1.13095 -217.262 -2.78573 180.034
lowerback 2.81172 5.09705 0.647814
upperback 14.5587 4.90031 -5.7382
thorax 15.1653 1.79404 -6.63037
lowerneck 13.216 4.21253 -3.8001
upperneck 14.9638 1.70458 12.9445
head 2.08744 -0.162512 4.54606
rclavicle 4.09496e-014 -9.54166e-015
rhumerus -41.4261 6.99178 -77.7983
rradius 34.719
rwrist -4.45088
rhand -19.6078 21.8899
rfingers 7.12502
rthumb 6.71842 -7.9835
lclavicle 4.09496e-014 -9.54166e-015
lhumerus 14.9574 3.71706 38.893
lradius 104.227
lwrist 4.30949
lhand -56.0072 -14.8672
lfingers 7.12502
lthumb -28.3431 13.0076
rfemur 26.9095 -4.0804 18.6431
rtibia 39.7675
rfoot -24.2156 18.5388
rtoes -0.828171
lfemur -44.188 13.2517 -17.6773
ltibia 32.2538
lfoot 6.58377 -6.3267
ltoes -0.46138
148
root 3.21735 17.6108 1.18596 -216.851 -2.90761 180.303
lowerback 2.76268 4.97624 0.83707
upperback 14.5479 4.75173 -5.53223
thorax 15.1546 1.74924 -6.50684
lowerneck 12.6137 4.00928 -4.20983
upperneck 14.4879 1.66709 12.5509
head 2.04424 -0.118276 4.49079
rclavicle -2.36554e-014 4.13472e-014
rhumerus -41.0748 7.26829 -77.5522
rradius 34.5617
rwrist -4.55209
rhand -19.2256 22.2663
rfingers 7.12502
rthumb 7.08738 -7.59502
lclavicle -2.36554e-014 4.13472e-014
lhumerus 15.6323 3.15608 39.2293
lradius 104.056
lwrist 3.91944
lhand -55.9916 -15.6925
lfingers 7.12502
lthumb -28.3282 12.1848
rfemur 26.1727 -4.06332 18.9968
rtibia 39.9734
rfoot -24.3195 18.118
rtoes -1.32333
lfemur -43.6866 13.6952 -18.2226
ltibia 32.5702
lfoot 4.28008 -5.84235
ltoes -2.54817
149
root 3.18925 17.6219 1.24765 -216.462 -3.00163 180.577
lowerback 2.79858 4.8675 1.03439
upperback 14.5662 4.60169 -5.32357
thorax 15.1281 1.69823 -6.39094
lowerneck 11.8504 3.79503 -4.61853
upperneck 14.1156 1.59922 12.1766
head 2.05983 -0.0842098 4.44409
rclavicle -2.52457e-014 -2.54444e-014
rhumerus -40.6354 7.54214 -77.3181
rradius 34.3818
rwrist -4.54374
rhand -18.877 22.7001
rfingers 7.12502
rthumb 7.42384 -7.14963
lclavicle -2.52457e-014 -2.54444e-014
lhumerus 16.2766 2.62058 39.4197
lradius 103.916
lwrist 3.57661
lhand -55.8925 -16.6476
lfingers 7.12502
lthumb -28.2335 11.2454
rfemur 25.4049 -4.04337 19.3673
rtibia 40.2134
rfoot -24.4374 17.6914
rtoes -1.93758
lfemur -43.1589 14.3976 -18.7934
ltibia 32.9054
lfoot 1.94609 -5.23301
ltoes -6.14403
150
root 3.16031 17.6265 1.31148 -216.146 -3.10972 180.862
lowerback 2.97027 4.76448 1.25968
upperback 14.621 4.43674 -5.12707
thorax 15.0659 1.63624 -6.31421
lowerneck 11.0469 3.59368 -4.99412
upperneck 13.766 1.54279 11.8357
head 2.08845 -0.0449637 4.4026
rclavicle 4.96962e-015 5.08889e-014
rhumerus -40.1346 7.78511 -77.107
rradius 34.2047
rwrist -4.32627
rhand -18.594 23.1032
rfingers 7.12502
rthumb 7.69705 -6.73668
lclavicle 4.96962e-015 5.08889e-014
lhumerus 16.9415 2.10731 39.4969
lradius 103.778
lwrist 3.26281
lhand -55.7092 -17.5863
lfingers 7.12502
lthumb -28.0583 10.3355
rfemur 24.6974 -4.06569 19.6866
rtibia 40.4789
rfoot -24.5104 17.3397
rtoes -2.39124
lfemur -42.5878 15.289 -19.404
ltibia 33.2616
lfoot -0.171841 -4.48224
ltoes -9.60008
151
root 3.13146 17.6302 1.37715 -215.834 -3.22398 181.096
lowerback 3.17709 4.67745 1.44524
upperback 14.6978 4.28481 -4.94381
thorax 15.0089 1.57132 -6.23211
lowerneck 10.3575 3.44069 -5.29459
upperneck 13.3315 1.56194 11.4727
head 2.07077 0.0267084 4.33901
rclavicle 4.37326e-015 4.77083e-014
rhumerus -39.5592 8.0048 -76.8983
rradius 33.9808
rwrist -3.98295
rhand -18.4243 23.5617
rfingers 7.12502
rthumb 7.86079 -6.2722
lclavicle 4.37326e-015 4.77083e-014
lhumerus 17.6117 1.66341 39.5293
lradius 103.668
lwrist 2.91053
lhand -55.3876 -18.3933
lfingers 7.12502
lthumb -27.7509 9.57841
rfemur 23.9712 -4.08627 19.9231
rtibia 40.7699
rfoot -24.5944 17.0276
rtoes -3.04576
lfemur -41.9464 15.9391 -19.869
ltibia 33.6164
lfoot -2.04358 -3.44129
ltoes -12.2173
152
root 3.10244 17.632 1.44472 -215.539 -3.38289 181.305
lowerback 3.43046 4.58892 1.59147
upperback 14.7972 4.12234 -4.77703
thorax 14.9481 1.49263 -6.15093
lowerneck 9.72609 3.33353 -5.55635
upperneck 12.889 1.62605 11.172
head 2.03771 0.115078 4.28753
rclavicle 2.17669e-014 -1.27222e-014
rhumerus -38.9637 8.40678 -76.8141
rradius 33.7848
rwrist -3.60902
rhand -18.5341 23.7428
rfingers 7.12502
rthumb 7.75486 -6.09503
lclavicle 2.17669e-014 -1.27222e-014
lhumerus 18.298 1.28657 39.4768
lradius 103.56
lwrist 2.54744
lhand -55.0366 -18.8756
lfingers 7.12502
lthumb -27.4152 9.14974
rfemur 23.2603 -4.16082 20.0607
rtibia 41.074
rfoot -24.6244 16.8199
rtoes -3.4653
lfemur -41.2549 16.5979 -20.3234
ltibia 33.9652
lfoot -3.55601 -2.71277
ltoes -13.998
153
root 3.0741 17.6364 1.51202 -215.243 -3.58488 181.475
lowerback 3.68006 4.51161 1.67843
upperback 14.9103 3.97316 -4.62317
thorax 14.9044 1.41109 -6.05061
lowerneck 9.07871 3.21722 -5.72455
upperneck 12.537 1.66756 10.8003
head 2.03946 0.190269 4.20029
rclavicle 1.19271e-015 -3.02153e-014
rhumerus -38.4241 8.76125 -76.7348
rradius 33.6263
rwrist -3.12225
rhand -18.7815 23.9151
rfingers 7.12502
rthumb 7.51608 -5.93132
lclavicle 1.19271e-015 -3.02153e-014
lhumerus 18.9684 0.959201 39.3921
lradius 103.481
lwrist 2.11754
lhand -54.668 -18.9981
lfingers 7.12502
lthumb -27.0626 9.08261
rfemur 22.5562 -4.32444 20.0569
rtibia 41.379
rfoot -24.6913 16.6621
rtoes -4.15936
lfemur -40.4147 16.5136 -20.4153
ltibia 34.3451
lfoot -4.95489 -1.65467
ltoes -14.1092
154
root 3.04595 17.6431 1.58182 -214.93 -3.81647 181.619
lowerback 3.93394 4.42752 1.71586
upperback 15.0281 3.81409 -4.46863
thorax 14.8577 1.31686 -5.92247
lowerneck 8.44771 3.12449 -5.99047
upperneck 12.2374 1.70676 10.5359
head 2.05093 0.255318 4.16375
rclavicle -2.01021e-014 -7.95139e-015
rhumerus -37.8818 9.18137 -76.6599
rradius 33.4606
rwrist -2.77833
rhand -19.0244 24.0422
rfingers 7.12502
rthumb 7.28156 -5.81246
lclavicle -2.01021e-014 -7.95139e-015
lhumerus 19.5947 0.687408 39.2534
lradius 103.411
lwrist 1.73761
lhand -54.2877 -18.8614
lfingers 7.12502
lthumb -26.6987 9.27525
rfemur 21.8352 -4.55048 19.9529
rtibia 41.6791
rfoot -24.6862 16.6586
rtoes -4.62836
lfemur -39.5086 16.0774 -20.3612
ltibia 34.7711
lfoot -6.12766 -0.517874
ltoes -13.502
155
root 3.0185 17.6506 1.65359 -214.596 -4.04495 181.743
lowerback 4.20656 4.35401 1.75644
upperback 15.1247 3.67261 -4.34547
thorax 14.7797 1.23372 -5.82905
lowerneck 7.97747 3.03254 -6.19579
upperneck 11.8951 1.72888 10.3194
head 2.02576 0.303724 4.13087
rclavicle -1.74977e-014 -4.29375e-014
rhumerus -37.4418 9.4629 -76.5877
rradius 33.4796
rwrist -2.45527
rhand -19.06 24.1039
rfingers 7.12502
rthumb 7.24725 -5.75201
lclavicle -1.74977e-014 -4.29375e-014
lhumerus 20.1662 0.382755 39.015
lradius 103.393
lwrist 1.34186
lhand -53.9607 -18.4165
lfingers 7.12502
lthumb -26.3857 9.76754
rfemur 21.073 -4.81605 19.7955
rtibia 41.9913
rfoot -24.676 16.6714
rtoes -5.07911
lfemur -38.5769 15.4795 -20.2457
ltibia 35.2362
lfoot -6.97492 0.44611
ltoes -12.6754
